<svg width="63" height="63" viewBox="0 0 63 63" fill="none" xmlns="http://www.w3.org/2000/svg">
<rect width="63" height="63" rx="15%" fill="oklch(76.8% 0.233 130.85)"/>
<path d="M5.25 48.5625H57.75C59.2003 48.5625 60.375 47.3878 60.375 45.9375V11.8125C60.375 10.3622 59.2003 9.1875 57.75 9.1875H5.25C3.79969 9.1875 2.625 10.3622 2.625 11.8125V45.9375C2.625 47.3878 3.79969 48.5625 5.25 48.5625Z" fill="url(#paint0_linear_182_142)"/>
<path d="M57.75 11.8125H5.25V45.9375H57.75V11.8125Z" fill="url(#paint1_linear_182_142)"/>
<path d="M49.2188 51.1875H39.375V48.5625H23.625V51.1875H13.7812C13.419 51.1875 13.125 51.4815 13.125 51.8437V53.1562C13.125 53.5185 13.419 53.8125 13.7812 53.8125H49.2188C49.581 53.8125 49.875 53.5185 49.875 53.1562V51.8437C49.875 51.4815 49.581 51.1875 49.2188 51.1875Z" fill="url(#paint2_linear_182_142)"/>
<path d="M10.5 40.6875H52.5C52.5 34.3087 49.6453 28.6059 45.1579 24.755L49.5154 19.1835C49.9616 18.6125 49.8606 17.7883 49.2896 17.3407C48.7161 16.8918 47.8918 16.9968 47.4469 17.5651L43.0657 23.1656C39.7477 20.9724 35.7761 19.6875 31.5 19.6875C27.2016 19.6875 23.2076 20.9842 19.8791 23.201L15.4717 17.5665C15.0255 16.9968 14.1999 16.8931 13.629 17.342C13.0581 17.7883 12.957 18.6138 13.4032 19.1848L17.7949 24.7996C13.335 28.6492 10.5 34.3323 10.5 40.6875ZM42.6562 31.5C43.743 31.5 44.625 32.382 44.625 33.4687C44.625 34.5555 43.743 35.4375 42.6562 35.4375C41.5695 35.4375 40.6875 34.5555 40.6875 33.4687C40.6875 32.382 41.5695 31.5 42.6562 31.5ZM20.3437 31.5C21.4305 31.5 22.3125 32.382 22.3125 33.4687C22.3125 34.5555 21.4305 35.4375 20.3437 35.4375C19.257 35.4375 18.375 34.5555 18.375 33.4687C18.375 32.382 19.257 31.5 20.3437 31.5Z" fill="#30DC80"/>
<path opacity="0.07" d="M48.4811 17.0625C48.7633 17.0625 49.0481 17.1531 49.2896 17.3421C49.8606 17.7883 49.9616 18.6139 49.5154 19.1848L45.1579 24.7564C49.6453 28.6059 52.5 34.3087 52.5 40.6875H10.5C10.5 34.3324 13.335 28.6492 17.7949 24.7984L13.4032 19.1835C12.957 18.6126 13.0581 17.7883 13.629 17.3407C13.8692 17.1531 14.154 17.0612 14.4362 17.0612C14.8273 17.0612 15.2132 17.2344 15.4718 17.5652L19.8791 23.1997C23.2076 20.9843 27.2016 19.6875 31.5 19.6875C35.7761 19.6875 39.7477 20.9724 43.0658 23.1669L47.4469 17.5665C47.7041 17.2357 48.09 17.0625 48.4811 17.0625ZM42.6562 35.4375C43.743 35.4375 44.625 34.5555 44.625 33.4687C44.625 32.382 43.743 31.5 42.6562 31.5C41.5695 31.5 40.6875 32.382 40.6875 33.4687C40.6875 34.5555 41.5695 35.4375 42.6562 35.4375ZM20.3438 35.4375C21.4305 35.4375 22.3125 34.5555 22.3125 33.4687C22.3125 32.382 21.4305 31.5 20.3438 31.5C19.257 31.5 18.375 32.382 18.375 33.4687C18.375 34.5555 19.257 35.4375 20.3438 35.4375ZM48.4811 16.4062C47.8708 16.4062 47.3038 16.6819 46.9284 17.1623L42.9161 22.2915C39.4853 20.1574 35.5517 19.0312 31.5 19.0312C27.4221 19.0312 23.4688 20.1679 20.0261 22.3243L15.9876 17.1623C15.6109 16.6819 15.0452 16.4062 14.4349 16.4062C13.9913 16.4062 13.5726 16.5506 13.2234 16.8249C12.3703 17.493 12.2181 18.7333 12.8861 19.5877L16.8984 24.717C12.4071 28.8251 9.84375 34.6093 9.84375 40.6875C9.84375 41.0497 10.1377 41.3437 10.5 41.3437H52.5C52.8623 41.3437 53.1562 41.0497 53.1562 40.6875C53.1562 34.5831 50.5759 28.7818 46.0556 24.6724L50.0325 19.5877C50.7006 18.7333 50.5483 17.493 49.6952 16.8249C49.3434 16.5506 48.9248 16.4062 48.4811 16.4062ZM42.6562 34.7812C41.9331 34.7812 41.3438 34.1919 41.3438 33.4687C41.3438 32.7456 41.9331 32.1562 42.6562 32.1562C43.3794 32.1562 43.9688 32.7456 43.9688 33.4687C43.9688 34.1919 43.3794 34.7812 42.6562 34.7812ZM20.3438 34.7812C19.6206 34.7812 19.0312 34.1919 19.0312 33.4687C19.0312 32.7456 19.6206 32.1562 20.3438 32.1562C21.0669 32.1562 21.6562 32.7456 21.6562 33.4687C21.6562 34.1919 21.0669 34.7812 20.3438 34.7812Z" fill="black"/>
<path opacity="0.07" d="M52.5 42H10.5C9.7755 42 9.1875 41.4107 9.1875 40.6875C9.1875 34.6566 11.6681 28.8461 16.0125 24.6488L12.3703 19.992C11.4791 18.8528 11.6813 17.2003 12.8192 16.3078C13.9296 15.4389 15.6384 15.6516 16.506 16.7567L20.1862 21.4594C23.6092 19.4408 27.5087 18.375 31.5 18.375C35.4664 18.375 39.3461 19.4289 42.7573 21.4292L46.4126 16.7567C46.914 16.1175 47.6661 15.75 48.4798 15.75C48.4811 15.75 48.4824 15.75 48.4837 15.75C49.0744 15.75 49.6348 15.9429 50.0994 16.3078C51.2374 17.199 51.4395 18.8514 50.5483 19.992L46.9429 24.6028C51.3161 28.8028 53.8125 34.6303 53.8125 40.6875C53.8125 41.4107 53.2245 42 52.5 42ZM14.4362 17.0625C14.1409 17.0625 13.8613 17.1596 13.6277 17.3421C13.0581 17.787 12.9583 18.6139 13.4032 19.1835L17.7896 24.7918L17.3421 25.2013C12.9924 29.1769 10.5 34.8219 10.5 40.6875H52.5C52.5 34.797 49.9905 29.1362 45.6146 25.158L45.1631 24.7485L49.5141 19.1848C49.959 18.6152 49.8579 17.7883 49.2883 17.3421C49.0573 17.1583 48.7777 17.0625 48.4811 17.0625C48.4811 17.0625 48.4798 17.0625 48.4785 17.0625C48.0716 17.0625 47.6962 17.2462 47.4456 17.5665L43.0697 23.1604L42.5683 22.8493C39.2451 20.7808 35.4178 19.6875 31.5 19.6875C27.5572 19.6875 23.7103 20.7913 20.3752 22.8808L19.8739 23.1945L15.4717 17.5665C15.2211 17.2462 14.8444 17.0625 14.4362 17.0625ZM42.6562 35.4375C41.5708 35.4375 40.6875 34.5542 40.6875 33.4687C40.6875 32.3833 41.5708 31.5 42.6562 31.5C43.7417 31.5 44.625 32.3833 44.625 33.4687C44.625 34.5542 43.7417 35.4375 42.6562 35.4375ZM42.6562 32.8125C42.2953 32.8125 42 33.1065 42 33.4687C42 33.831 42.2953 34.125 42.6562 34.125C43.0172 34.125 43.3125 33.831 43.3125 33.4687C43.3125 33.1065 43.0172 32.8125 42.6562 32.8125ZM20.3437 35.4375C19.2583 35.4375 18.375 34.5542 18.375 33.4687C18.375 32.3833 19.2583 31.5 20.3437 31.5C21.4292 31.5 22.3125 32.3833 22.3125 33.4687C22.3125 34.5542 21.4292 35.4375 20.3437 35.4375ZM20.3437 32.8125C19.9828 32.8125 19.6875 33.1065 19.6875 33.4687C19.6875 33.831 19.9828 34.125 20.3437 34.125C20.7047 34.125 21 33.831 21 33.4687C21 33.1065 20.7047 32.8125 20.3437 32.8125Z" fill="black"/>
<defs>
<linearGradient id="paint0_linear_182_142" x1="54.2325" y1="9.69544" x2="10.5696" y2="46.5347" gradientUnits="userSpaceOnUse">
<stop stop-color="#A1AAB3"/>
<stop offset="1" stop-color="#8F979E"/>
</linearGradient>
<linearGradient id="paint1_linear_182_142" x1="26.2487" y1="11.9556" x2="37.3275" y2="47.6529" gradientUnits="userSpaceOnUse">
<stop stop-color="#6D7479"/>
<stop offset="1" stop-color="#323538"/>
</linearGradient>
<linearGradient id="paint2_linear_182_142" x1="31.5" y1="48.552" x2="31.5" y2="53.823" gradientUnits="userSpaceOnUse">
<stop stop-color="#484B4F"/>
<stop offset="0.23" stop-color="#656D75"/>
<stop offset="0.367" stop-color="#727D86"/>
</linearGradient>
</defs>
</svg>
