<svg width="63" height="63" viewBox="0 0 63 63" fill="none" xmlns="http://www.w3.org/2000/svg">
<rect width="63" height="63" rx="15%" fill="oklch(49.6% 0.265 301.924)"/>
<path d="M4.72694 33.8644C4.70922 33.8663 4.68756 33.8683 4.66591 33.8683C4.42966 33.8683 4.23869 33.6773 4.23869 33.4411C4.23869 33.4194 4.24066 33.3978 4.24262 33.3781V23.5147H2.45697C2.43925 23.5166 2.41956 23.5186 2.39988 23.5186C2.16363 23.5186 1.97266 23.3276 1.97266 23.0914C1.97266 23.0697 1.97462 23.0481 1.97659 23.0264V22.4259C1.97659 22.4141 1.97463 22.4003 1.97463 22.3846C1.97463 22.2645 2.014 22.1523 2.08291 22.0617C2.19906 21.9653 2.34475 21.9042 2.50619 21.8924H2.50816L4.24262 21.6778V19.6992C4.24262 17.0152 5.53019 15.6718 8.10531 15.6692C8.79438 15.6751 9.45784 15.7716 10.0878 15.9507L10.0347 15.9389C10.1863 15.9665 10.3143 16.0452 10.4088 16.1555C10.4796 16.2775 10.521 16.4252 10.521 16.5827C10.521 16.6103 10.519 16.6378 10.517 16.6634V16.6595V17.2875C10.517 17.5927 10.3989 17.7443 10.1528 17.7443C9.93231 17.7364 9.72166 17.7108 9.51888 17.6694L9.54447 17.6734C9.28656 17.6261 8.98731 17.5986 8.68412 17.5986C8.66838 17.5986 8.65066 17.5986 8.63491 17.5986C8.56797 17.5907 8.49119 17.5868 8.41244 17.5868C7.91237 17.5868 7.44775 17.7502 7.07369 18.0258L7.07959 18.0218C6.79806 18.3447 6.62678 18.77 6.62678 19.2346C6.62678 19.2956 6.63072 19.3567 6.63662 19.4177V19.4098V21.6306H9.89491C9.91459 21.6266 9.93625 21.6266 9.95791 21.6266C10.1922 21.6266 10.3832 21.8176 10.3832 22.0519C10.3832 22.0735 10.3812 22.0932 10.3792 22.1129V22.1109V23.0284C10.3812 23.0461 10.3832 23.0658 10.3832 23.0874C10.3832 23.3257 10.1902 23.5166 9.95397 23.5166C9.93231 23.5166 9.91263 23.5147 9.89294 23.5127H6.63662V33.3781C6.63859 33.3958 6.64056 33.4175 6.64056 33.4391C6.64056 33.6754 6.44959 33.8663 6.21334 33.8663C6.19169 33.8663 6.172 33.8644 6.15231 33.8624L4.72694 33.8644ZM13.6454 19.4571C13.6198 19.459 13.5922 19.459 13.5627 19.459C13.1709 19.459 12.8126 19.3094 12.5448 19.0613L12.5468 19.0633C12.3007 18.7838 12.1511 18.4156 12.1511 18.012C12.1511 17.6084 12.3007 17.2422 12.5468 16.9607L12.5448 16.9627C12.8106 16.7126 13.1689 16.5591 13.5627 16.5591C13.5922 16.5591 13.6217 16.5591 13.6513 16.561H13.6473C13.671 16.5591 13.7005 16.5591 13.73 16.5591C14.1238 16.5591 14.4801 16.7126 14.7459 16.9627C14.99 17.2422 15.1397 17.6084 15.1397 18.012C15.1397 18.4156 14.99 18.7818 14.7439 19.0633L14.7459 19.0613C14.4801 19.3074 14.1218 19.459 13.73 19.459C13.7025 19.459 13.6729 19.459 13.6454 19.4571ZM12.9209 33.8644C12.9032 33.8663 12.8835 33.8683 12.8618 33.8683C12.6256 33.8683 12.4326 33.6773 12.4326 33.4391C12.4326 33.4175 12.4346 33.3978 12.4366 33.3761V33.3781V22.1109C12.4346 22.0932 12.4326 22.0735 12.4326 22.0519C12.4326 21.8176 12.6236 21.6266 12.8579 21.6266C12.8795 21.6266 12.8992 21.6286 12.9209 21.6306H12.9189H14.3443C14.362 21.6286 14.3837 21.6266 14.4053 21.6266C14.6396 21.6266 14.8286 21.8156 14.8286 22.0499C14.8286 22.0716 14.8266 22.0932 14.8247 22.1129V22.1109V33.3781C14.8266 33.3958 14.8286 33.4175 14.8286 33.4411C14.8286 33.6773 14.6376 33.8683 14.4014 33.8683C14.3817 33.8683 14.36 33.8663 14.3423 33.8644H12.9209ZM18.4531 33.8644C18.4353 33.8663 18.4157 33.8683 18.396 33.8683C18.1597 33.8683 17.9688 33.6773 17.9688 33.4411C17.9688 33.4194 17.9707 33.3978 17.9727 33.3761V33.3781V22.1109C17.9707 22.0932 17.9688 22.0716 17.9688 22.0499C17.9688 21.8156 18.1578 21.6266 18.392 21.6266C18.4137 21.6266 18.4353 21.6286 18.455 21.6306H19.5162C19.528 21.6306 19.5418 21.6286 19.5556 21.6286C19.6796 21.6286 19.7977 21.664 19.8942 21.727L19.8922 21.7251C19.9926 21.8156 20.0576 21.9416 20.0694 22.0834V22.0853L20.2407 23.4379C20.6108 23.0303 21.0124 22.6661 21.4456 22.3413L21.4672 22.3255C22.1523 21.8294 23.0127 21.5302 23.94 21.5302C23.9538 21.5302 23.9656 21.5302 23.9793 21.5302H23.9774C24.1723 21.5302 24.3652 21.538 24.5562 21.5538C24.5582 21.5538 24.5621 21.5538 24.566 21.5538C24.7905 21.5538 24.9716 21.7349 24.9716 21.9593C24.9716 21.9692 24.9716 21.979 24.9696 21.9889V23.2902C24.9716 23.306 24.9736 23.3257 24.9736 23.3434C24.9736 23.556 24.8003 23.7293 24.5877 23.7293C24.568 23.7293 24.5483 23.7273 24.5286 23.7253H24.5306C24.3829 23.7253 24.2372 23.7155 24.0935 23.6997L24.1112 23.7017C23.9793 23.6859 23.8238 23.6781 23.6683 23.6781C23.6328 23.6781 23.5915 23.6761 23.5502 23.6761C22.3315 23.6761 21.2152 24.1132 20.349 24.8396L20.3568 24.8337V33.3761C20.3588 33.3938 20.3608 33.4155 20.3608 33.4372C20.3608 33.6734 20.1698 33.8644 19.9336 33.8644C19.9139 33.8644 19.8942 33.8624 19.8745 33.8604L18.4531 33.8644ZM31.7953 34.2266C31.6693 34.2365 31.5236 34.2424 31.3759 34.2424C29.7931 34.2424 28.3559 33.6104 27.3065 32.5847L27.3085 32.5867C26.3537 31.4113 25.7748 29.8973 25.7748 28.2475C25.7748 28.0664 25.7827 27.8892 25.7945 27.712L25.7926 27.7357C25.7847 27.6077 25.7788 27.4561 25.7788 27.3045C25.7788 25.6567 26.3556 24.1447 27.3183 22.9575L27.3085 22.9713C28.2988 21.918 29.7025 21.2624 31.2578 21.2624C31.3641 21.2624 31.4704 21.2663 31.5748 21.2723H31.561C31.6496 21.2663 31.752 21.2624 31.8563 21.2624C33.1104 21.2624 34.2483 21.7566 35.0851 22.5618L35.0831 22.5598C35.8529 23.4497 36.3234 24.6191 36.3234 25.8988C36.3234 26.011 36.3195 26.1233 36.3136 26.2335V26.2178C36.3116 26.7729 36.2683 27.3163 36.1836 27.8459L36.1915 27.7868C36.1797 27.9345 36.1226 28.0664 36.034 28.1708V28.1688C35.9513 28.2318 35.845 28.2692 35.7308 28.2692C35.7151 28.2692 35.6973 28.2692 35.6816 28.2672H28.1058C28.1019 28.3401 28.0999 28.4228 28.0999 28.5094C28.0999 29.5883 28.4917 30.5766 29.1394 31.3365L29.1335 31.3306C29.8482 31.9547 30.7893 32.3366 31.8209 32.3366C31.941 32.3366 32.0591 32.3307 32.1753 32.3209L32.1595 32.3228C32.1634 32.3228 32.1674 32.3228 32.1713 32.3228C32.6576 32.3228 33.134 32.2874 33.6006 32.2185L33.5475 32.2244C34.2011 32.1122 34.7661 31.9704 35.3134 31.7913L35.2268 31.8169L35.5142 31.7303C35.5792 31.7066 35.656 31.6928 35.7347 31.6909C35.9434 31.6909 36.0419 31.8385 36.0419 32.126V32.8052C36.0438 32.8249 36.0438 32.8485 36.0438 32.8721C36.0438 33.0099 36.0084 33.1399 35.9474 33.2521L35.9493 33.2482C35.8391 33.3702 35.7013 33.4647 35.5457 33.5258L35.5379 33.5277C35.0437 33.7384 34.4649 33.9136 33.8644 34.0238L33.8132 34.0317C33.2108 34.1558 32.5178 34.2266 31.8091 34.2266C31.8032 34.2266 31.8012 34.2266 31.7953 34.2266ZM34.1125 26.6725C34.1302 26.5032 34.1401 26.3063 34.1401 26.1075C34.1401 26.0858 34.1401 26.0622 34.1401 26.0406V26.0445C34.146 25.9756 34.1479 25.8949 34.1479 25.8122C34.1479 25.0582 33.8841 24.3652 33.4451 23.8218L33.449 23.8277C32.9805 23.3591 32.3328 23.0678 31.6161 23.0678C31.5531 23.0678 31.4901 23.0697 31.4271 23.0737H31.435C31.3818 23.0697 31.3188 23.0678 31.2558 23.0678C30.3994 23.0678 29.6257 23.4162 29.0686 23.9813C28.4701 24.7077 28.1058 25.6468 28.1039 26.6706L34.1125 26.6725ZM45.5903 33.9943C45.4604 34.014 45.3127 34.0258 45.1592 34.0258C43.4877 34.0258 42.1332 32.6713 42.1332 30.9998C42.1332 30.8483 42.145 30.6986 42.1667 30.5529L42.1647 30.5687V23.4753H40.4282C40.4105 23.4773 40.3889 23.4792 40.3692 23.4792C40.1329 23.4792 39.94 23.2863 39.94 23.05C39.94 23.0303 39.942 23.0107 39.9439 22.991V22.3885C39.9439 22.3787 39.9439 22.3669 39.9439 22.357C39.9439 22.233 39.9853 22.1188 40.0562 22.0263V22.0283C40.1703 21.9338 40.316 21.8727 40.4755 21.8629L42.2415 21.6424L42.5545 18.6538C42.5545 18.6499 42.5545 18.644 42.5545 18.6381C42.5545 18.3802 42.7632 18.1695 43.0231 18.1695C43.0368 18.1695 43.0526 18.1695 43.0664 18.1715H44.0724C44.0901 18.1695 44.1098 18.1675 44.1315 18.1675C44.3677 18.1675 44.5587 18.3585 44.5587 18.5948C44.5587 18.6164 44.5567 18.6361 44.5547 18.6558V21.5971H47.6949C47.7126 21.5951 47.7323 21.5932 47.754 21.5932C47.9883 21.5932 48.1792 21.7841 48.1792 22.0184C48.1792 22.0401 48.1772 22.0617 48.1733 22.0834V22.0814V22.9969C48.1753 23.0146 48.1772 23.0363 48.1772 23.0579C48.1772 23.2922 47.9863 23.4832 47.752 23.4832C47.7303 23.4832 47.7107 23.4812 47.691 23.4792H44.5528V30.4506C44.5469 30.5018 44.5449 30.5608 44.5449 30.6199C44.5449 31.0353 44.6985 31.4172 44.9544 31.7066L44.9524 31.7047C45.2773 31.937 45.6828 32.0768 46.1219 32.0768C46.1908 32.0768 46.2597 32.0728 46.3266 32.0669H46.3187C46.7243 32.059 47.1141 32.0157 47.4921 31.9389L47.4508 31.9468C47.5906 31.9133 47.7559 31.8858 47.9253 31.874H47.9351C47.9449 31.872 47.9587 31.872 47.9705 31.872C48.0631 31.872 48.1457 31.9153 48.2009 31.9823C48.2462 32.0689 48.2737 32.1713 48.2737 32.2815C48.2737 32.2992 48.2737 32.3169 48.2717 32.3347V32.9863C48.2737 33.0021 48.2737 33.0218 48.2737 33.0414C48.2737 33.193 48.2363 33.3348 48.1713 33.4588L48.1733 33.4529C48.0808 33.5789 47.9469 33.6695 47.7914 33.7049H47.7874C47.1712 33.89 46.4605 33.9963 45.7262 33.9963C45.6789 33.9963 45.6317 33.9963 45.5844 33.9943H45.5923H45.5903ZM54.554 33.827C54.5343 33.8289 54.5107 33.8289 54.4871 33.8289C54.3316 33.8289 54.1839 33.7915 54.054 33.7266L54.0599 33.7285C53.9043 33.5828 53.7902 33.3938 53.735 33.1832L53.7331 33.1753L49.4668 22.4614C49.4327 22.3643 49.3952 22.2684 49.3546 22.1739C49.3191 22.0952 49.2975 22.0046 49.2975 21.9082C49.2975 21.7014 49.4176 21.5932 49.6558 21.5932H51.0831C51.1048 21.5912 51.1323 21.5912 51.1579 21.5912C51.3154 21.5912 51.4631 21.6286 51.593 21.6955L51.5871 21.6936C51.7348 21.8432 51.845 22.0302 51.8982 22.2409L51.9002 22.2488L55.2077 31.6535L58.5112 22.2488C58.5703 22.0302 58.6786 21.8432 58.8262 21.6916C58.9522 21.6286 59.1038 21.5912 59.2613 21.5912C59.2849 21.5912 59.3105 21.5912 59.3342 21.5932H59.3302H60.6591C60.9052 21.5932 61.0233 21.7014 61.0233 21.9082C61.0194 22.0046 60.9977 22.0952 60.9603 22.1779L60.9623 22.1739C60.9229 22.2724 60.8836 22.3649 60.854 22.4614L56.6055 33.1753C56.5484 33.3958 56.4362 33.5828 56.2806 33.7285C56.1566 33.7915 56.0089 33.8289 55.8534 33.8289C55.8298 33.8289 55.8062 33.8289 55.7825 33.827H55.7865H54.554ZM49.5534 41.5898C44.3205 45.1847 37.8492 47.3306 30.8759 47.3306C30.8404 47.3306 30.807 47.3306 30.7715 47.3306H30.7774C30.7243 47.3306 30.6613 47.3306 30.6003 47.3306C21.8334 47.3306 13.8422 44.0093 7.81394 38.5579L7.84347 38.5835C7.36703 38.1503 7.79425 37.5656 8.35928 37.8944C14.9428 41.7256 22.8512 43.9877 31.2854 43.9877C31.2932 43.9877 31.3011 43.9877 31.309 43.9877C37.6366 43.9542 43.6472 42.6391 49.1085 40.2864L48.8112 40.4006C49.6676 40.0384 50.3901 40.9696 49.5495 41.5898H49.5534ZM51.6639 39.1761C52.3156 40.0049 50.9414 43.4325 50.3311 44.9642C50.1421 45.4308 50.5397 45.6178 50.963 45.2674C52.7684 43.6077 53.8965 41.2354 53.8965 38.5992C53.8965 38.2193 53.8728 37.8452 53.8276 37.477L53.8315 37.5203C52.8392 37.1187 51.6895 36.8844 50.4846 36.8844C48.6773 36.8844 46.994 37.4101 45.5765 38.3157L45.6139 38.2941C45.1631 38.6071 45.2418 39.0422 45.736 38.9812C47.372 38.7843 51.0182 38.3492 51.6659 39.178L51.6639 39.1761Z" fill="white"/>
<path d="M13.6454 19.4571C13.6198 19.459 13.5922 19.459 13.5627 19.459C13.1709 19.459 12.8126 19.3094 12.5448 19.0613L12.5468 19.0633C12.3007 18.7838 12.1511 18.4156 12.1511 18.012C12.1511 17.6084 12.3007 17.2422 12.5468 16.9607L12.5448 16.9627C12.8106 16.7126 13.1689 16.5591 13.5627 16.5591C13.5922 16.5591 13.6218 16.5591 13.6513 16.561H13.6473C13.671 16.5591 13.7005 16.5591 13.73 16.5591C14.1238 16.5591 14.4801 16.7126 14.7459 16.9627C14.99 17.2422 15.1397 17.6084 15.1397 18.012C15.1397 18.4156 14.99 18.7818 14.7439 19.0633L14.7459 19.0613C14.4801 19.3074 14.1218 19.459 13.73 19.459C13.7025 19.459 13.6729 19.459 13.6454 19.4571ZM13.6454 19.4571H13.6493M4.72694 33.8644C4.70922 33.8663 4.68756 33.8683 4.66591 33.8683C4.42966 33.8683 4.23869 33.6773 4.23869 33.4411C4.23869 33.4194 4.24066 33.3978 4.24262 33.3781V23.5147H2.45697C2.43925 23.5166 2.41956 23.5186 2.39988 23.5186C2.16363 23.5186 1.97266 23.3276 1.97266 23.0914C1.97266 23.0697 1.97462 23.0481 1.97659 23.0264V22.4259C1.97659 22.4141 1.97463 22.4003 1.97463 22.3846C1.97463 22.2645 2.014 22.1523 2.08291 22.0617C2.19906 21.9653 2.34475 21.9042 2.50619 21.8924H2.50816L4.24262 21.6778V19.6992C4.24262 17.0152 5.53019 15.6718 8.10531 15.6692C8.79438 15.6751 9.45784 15.7716 10.0878 15.9507L10.0347 15.9389C10.1863 15.9665 10.3143 16.0452 10.4088 16.1555C10.4796 16.2775 10.521 16.4252 10.521 16.5827C10.521 16.6103 10.519 16.6378 10.517 16.6634V16.6595V17.2875C10.517 17.5927 10.3989 17.7443 10.1528 17.7443C9.93231 17.7364 9.72166 17.7108 9.51888 17.6694L9.54447 17.6734C9.28656 17.6261 8.98731 17.5986 8.68412 17.5986C8.66837 17.5986 8.65066 17.5986 8.63491 17.5986C8.56797 17.5907 8.49119 17.5868 8.41244 17.5868C7.91237 17.5868 7.44775 17.7502 7.07369 18.0258L7.07959 18.0218C6.79806 18.3447 6.62678 18.77 6.62678 19.2346C6.62678 19.2956 6.63072 19.3567 6.63662 19.4177V19.4098V21.6306H9.89491C9.91459 21.6266 9.93625 21.6266 9.95791 21.6266C10.1922 21.6266 10.3832 21.8176 10.3832 22.0519C10.3832 22.0735 10.3812 22.0932 10.3792 22.1129V22.1109V23.0284C10.3812 23.0461 10.3832 23.0658 10.3832 23.0874C10.3832 23.3257 10.1902 23.5166 9.95397 23.5166C9.93231 23.5166 9.91263 23.5147 9.89294 23.5127H6.63662V33.3781C6.63859 33.3958 6.64056 33.4175 6.64056 33.4391C6.64056 33.6754 6.44959 33.8663 6.21334 33.8663C6.19169 33.8663 6.172 33.8644 6.15231 33.8624L4.72694 33.8644ZM12.9209 33.8644C12.9032 33.8663 12.8835 33.8683 12.8618 33.8683C12.6256 33.8683 12.4326 33.6773 12.4326 33.4391C12.4326 33.4175 12.4346 33.3978 12.4366 33.3761V33.3781V22.1109C12.4346 22.0932 12.4326 22.0735 12.4326 22.0519C12.4326 21.8176 12.6236 21.6266 12.8579 21.6266C12.8795 21.6266 12.8992 21.6286 12.9209 21.6306H12.9189H14.3443C14.362 21.6286 14.3837 21.6266 14.4053 21.6266C14.6396 21.6266 14.8286 21.8156 14.8286 22.0499C14.8286 22.0716 14.8266 22.0932 14.8247 22.1129V22.1109V33.3781C14.8266 33.3958 14.8286 33.4175 14.8286 33.4411C14.8286 33.6773 14.6376 33.8683 14.4014 33.8683C14.3817 33.8683 14.36 33.8663 14.3423 33.8644H12.9209ZM18.4531 33.8644C18.4353 33.8663 18.4157 33.8683 18.396 33.8683C18.1597 33.8683 17.9688 33.6773 17.9688 33.4411C17.9688 33.4194 17.9707 33.3978 17.9727 33.3761V33.3781V22.1109C17.9707 22.0932 17.9688 22.0716 17.9688 22.0499C17.9688 21.8156 18.1578 21.6266 18.392 21.6266C18.4137 21.6266 18.4353 21.6286 18.455 21.6306H19.5162C19.528 21.6306 19.5418 21.6286 19.5556 21.6286C19.6796 21.6286 19.7977 21.664 19.8942 21.727L19.8922 21.7251C19.9926 21.8156 20.0576 21.9416 20.0694 22.0834V22.0853L20.2407 23.4379C20.6108 23.0303 21.0124 22.6661 21.4456 22.3413L21.4672 22.3255C22.1523 21.8294 23.0127 21.5302 23.94 21.5302C23.9537 21.5302 23.9656 21.5302 23.9793 21.5302H23.9774C24.1723 21.5302 24.3652 21.538 24.5562 21.5538C24.5582 21.5538 24.5621 21.5538 24.566 21.5538C24.7905 21.5538 24.9716 21.7349 24.9716 21.9593C24.9716 21.9692 24.9716 21.979 24.9696 21.9889V23.2902C24.9716 23.306 24.9736 23.3257 24.9736 23.3434C24.9736 23.556 24.8003 23.7293 24.5877 23.7293C24.568 23.7293 24.5483 23.7273 24.5286 23.7253H24.5306C24.3829 23.7253 24.2373 23.7155 24.0935 23.6997L24.1112 23.7017C23.9793 23.6859 23.8238 23.6781 23.6683 23.6781C23.6328 23.6781 23.5915 23.6761 23.5502 23.6761C22.3315 23.6761 21.2152 24.1132 20.349 24.8396L20.3568 24.8337V33.3761C20.3588 33.3938 20.3608 33.4155 20.3608 33.4372C20.3608 33.6734 20.1698 33.8644 19.9336 33.8644C19.9139 33.8644 19.8942 33.8624 19.8745 33.8604L18.4531 33.8644ZM31.7953 34.2266C31.6693 34.2365 31.5236 34.2424 31.3759 34.2424C29.7931 34.2424 28.3559 33.6104 27.3065 32.5847L27.3085 32.5867C26.3537 31.4113 25.7748 29.8973 25.7748 28.2475C25.7748 28.0664 25.7827 27.8892 25.7945 27.712L25.7926 27.7357C25.7847 27.6077 25.7788 27.4561 25.7788 27.3045C25.7788 25.6567 26.3556 24.1447 27.3183 22.9575L27.3085 22.9713C28.2988 21.918 29.7025 21.2624 31.2578 21.2624C31.3641 21.2624 31.4704 21.2663 31.5748 21.2723H31.561C31.6496 21.2663 31.752 21.2624 31.8563 21.2624C33.1104 21.2624 34.2483 21.7566 35.0851 22.5618L35.0831 22.5598C35.8529 23.4497 36.3234 24.6191 36.3234 25.8988C36.3234 26.011 36.3195 26.1233 36.3136 26.2335V26.2178C36.3116 26.7729 36.2683 27.3163 36.1836 27.8459L36.1915 27.7868C36.1797 27.9345 36.1226 28.0664 36.034 28.1708V28.1688C35.9513 28.2318 35.845 28.2692 35.7308 28.2692C35.7151 28.2692 35.6973 28.2692 35.6816 28.2672H28.1058C28.1019 28.3401 28.0999 28.4228 28.0999 28.5094C28.0999 29.5883 28.4917 30.5766 29.1394 31.3365L29.1335 31.3306C29.8482 31.9547 30.7893 32.3366 31.8209 32.3366C31.941 32.3366 32.0591 32.3307 32.1753 32.3209L32.1595 32.3228C32.1634 32.3228 32.1674 32.3228 32.1713 32.3228C32.6576 32.3228 33.134 32.2874 33.6006 32.2185L33.5475 32.2244C34.2011 32.1122 34.7661 31.9704 35.3134 31.7913L35.2268 31.8169L35.5142 31.7303C35.5792 31.7066 35.656 31.6928 35.7347 31.6909C35.9434 31.6909 36.0419 31.8385 36.0419 32.126V32.8052C36.0438 32.8249 36.0438 32.8485 36.0438 32.8721C36.0438 33.0099 36.0084 33.1399 35.9474 33.2521L35.9493 33.2482C35.8391 33.3702 35.7013 33.4647 35.5457 33.5258L35.5379 33.5277C35.0437 33.7384 34.4649 33.9136 33.8644 34.0238L33.8132 34.0317C33.2108 34.1558 32.5178 34.2266 31.8091 34.2266C31.8032 34.2266 31.8012 34.2266 31.7953 34.2266ZM34.1125 26.6725C34.1302 26.5032 34.1401 26.3063 34.1401 26.1075C34.1401 26.0858 34.1401 26.0622 34.1401 26.0406V26.0445C34.146 25.9756 34.1479 25.8949 34.1479 25.8122C34.1479 25.0582 33.8841 24.3652 33.4451 23.8218L33.449 23.8277C32.9805 23.3591 32.3328 23.0678 31.6161 23.0678C31.5531 23.0678 31.4901 23.0697 31.4271 23.0737H31.435C31.3818 23.0697 31.3188 23.0678 31.2558 23.0678C30.3994 23.0678 29.6257 23.4162 29.0686 23.9813C28.4701 24.7077 28.1058 25.6468 28.1039 26.6706L34.1125 26.6725ZM45.5903 33.9943C45.4604 34.014 45.3127 34.0258 45.1592 34.0258C43.4877 34.0258 42.1332 32.6713 42.1332 30.9998C42.1332 30.8483 42.145 30.6986 42.1667 30.5529L42.1647 30.5687V23.4753H40.4282C40.4105 23.4773 40.3889 23.4792 40.3692 23.4792C40.1329 23.4792 39.94 23.2863 39.94 23.05C39.94 23.0303 39.942 23.0107 39.9439 22.991V22.3885C39.9439 22.3787 39.9439 22.3669 39.9439 22.357C39.9439 22.233 39.9853 22.1188 40.0562 22.0263V22.0283C40.1703 21.9338 40.316 21.8727 40.4755 21.8629L42.2415 21.6424L42.5545 18.6538C42.5545 18.6499 42.5545 18.644 42.5545 18.6381C42.5545 18.3802 42.7632 18.1695 43.0231 18.1695C43.0368 18.1695 43.0526 18.1695 43.0664 18.1715H44.0724C44.0901 18.1695 44.1098 18.1675 44.1315 18.1675C44.3677 18.1675 44.5587 18.3585 44.5587 18.5948C44.5587 18.6164 44.5567 18.6361 44.5547 18.6558V21.5971H47.6949C47.7126 21.5951 47.7323 21.5932 47.754 21.5932C47.9882 21.5932 48.1792 21.7841 48.1792 22.0184C48.1792 22.0401 48.1772 22.0617 48.1733 22.0834V22.0814V22.9969C48.1753 23.0146 48.1772 23.0363 48.1772 23.0579C48.1772 23.2922 47.9863 23.4832 47.752 23.4832C47.7303 23.4832 47.7107 23.4812 47.691 23.4792H44.5528V30.4506C44.5469 30.5018 44.5449 30.5608 44.5449 30.6199C44.5449 31.0353 44.6985 31.4172 44.9544 31.7066L44.9524 31.7047C45.2773 31.937 45.6828 32.0768 46.1219 32.0768C46.1908 32.0768 46.2597 32.0728 46.3266 32.0669H46.3187C46.7243 32.059 47.1141 32.0157 47.4921 31.9389L47.4508 31.9468C47.5906 31.9133 47.7559 31.8858 47.9252 31.874H47.9351C47.9449 31.872 47.9587 31.872 47.9705 31.872C48.0631 31.872 48.1457 31.9153 48.2009 31.9823C48.2462 32.0689 48.2737 32.1713 48.2737 32.2815C48.2737 32.2992 48.2737 32.3169 48.2717 32.3347V32.9863C48.2737 33.0021 48.2737 33.0218 48.2737 33.0414C48.2737 33.193 48.2363 33.3348 48.1713 33.4588L48.1733 33.4529C48.0808 33.5789 47.9469 33.6695 47.7914 33.7049H47.7874C47.1712 33.89 46.4605 33.9963 45.7262 33.9963C45.6789 33.9963 45.6317 33.9963 45.5844 33.9943H45.5923H45.5903ZM54.554 33.827C54.5343 33.8289 54.5107 33.8289 54.4871 33.8289C54.3316 33.8289 54.1839 33.7915 54.054 33.7266L54.0599 33.7285C53.9043 33.5828 53.7902 33.3938 53.735 33.1832L53.7331 33.1753L49.4668 22.4614C49.4327 22.3643 49.3952 22.2684 49.3546 22.1739C49.3191 22.0952 49.2975 22.0046 49.2975 21.9082C49.2975 21.7014 49.4176 21.5932 49.6558 21.5932H51.0831C51.1048 21.5912 51.1323 21.5912 51.1579 21.5912C51.3154 21.5912 51.4631 21.6286 51.593 21.6955L51.5871 21.6936C51.7348 21.8432 51.845 22.0302 51.8982 22.2409L51.9002 22.2488L55.2077 31.6535L58.5112 22.2488C58.5703 22.0302 58.6786 21.8432 58.8262 21.6916C58.9522 21.6286 59.1038 21.5912 59.2613 21.5912C59.2849 21.5912 59.3105 21.5912 59.3342 21.5932H59.3302H60.6591C60.9052 21.5932 61.0233 21.7014 61.0233 21.9082C61.0194 22.0046 60.9977 22.0952 60.9603 22.1779L60.9623 22.1739C60.9229 22.2724 60.8836 22.3649 60.854 22.4614L56.6055 33.1753C56.5484 33.3958 56.4362 33.5828 56.2806 33.7285C56.1566 33.7915 56.0089 33.8289 55.8534 33.8289C55.8298 33.8289 55.8062 33.8289 55.7825 33.827H55.7865H54.554ZM49.5534 41.5898C44.3205 45.1847 37.8492 47.3306 30.8759 47.3306C30.8404 47.3306 30.807 47.3306 30.7715 47.3306H30.7774C30.7243 47.3306 30.6613 47.3306 30.6003 47.3306C21.8334 47.3306 13.8423 44.0093 7.81394 38.5579L7.84347 38.5835C7.36703 38.1503 7.79425 37.5656 8.35928 37.8944C14.9428 41.7256 22.8513 43.9877 31.2854 43.9877C31.2932 43.9877 31.3011 43.9877 31.309 43.9877C37.6366 43.9542 43.6472 42.6391 49.1085 40.2864L48.8112 40.4006C49.6676 40.0384 50.3901 40.9696 49.5495 41.5898H49.5534ZM51.6639 39.1761C52.3156 40.0049 50.9414 43.4325 50.3311 44.9642C50.1421 45.4308 50.5397 45.6178 50.963 45.2674C52.7684 43.6077 53.8965 41.2354 53.8965 38.5992C53.8965 38.2193 53.8728 37.8452 53.8276 37.477L53.8315 37.5203C52.8392 37.1187 51.6895 36.8844 50.4846 36.8844C48.6773 36.8844 46.994 37.4101 45.5765 38.3157L45.6139 38.2941C45.1631 38.6071 45.2418 39.0422 45.736 38.9812C47.372 38.7843 51.0182 38.3492 51.6659 39.178L51.6639 39.1761Z" stroke="white"/>
</svg>
