<svg width="63" height="63" viewBox="0 0 63 63" fill="none" xmlns="http://www.w3.org/2000/svg">
<rect width="63" height="63" rx="15%" fill="oklch(59.2% 0.249 0.584)"/>
<path d="M13.5188 28.9852C13.5208 28.6332 13.4534 28.2842 13.3205 27.9582C13.1875 27.6322 12.9915 27.3357 12.7438 27.0855C12.4961 26.8353 12.2015 26.6365 11.8768 26.5003C11.5521 26.3642 11.2038 26.2934 10.8517 26.292H9.52875V31.6549H10.8517C11.5587 31.6521 12.2358 31.3699 12.7355 30.8697C13.2351 30.3696 13.5167 29.6922 13.5188 28.9852ZM19.5352 39.6743H14.679L10.8255 34.3245H9.52875V39.6611H5.25V23.625H11.3794C14.9126 23.625 17.7975 26.0269 17.7975 28.9852C17.7975 30.7886 16.6924 32.3978 15.0097 33.3848L19.5352 39.6743Z" fill="white"/>
<path d="M24.36 29.9461C23.2312 29.9461 22.2679 31.4817 22.2679 33.3849C22.2679 35.288 23.2286 36.8236 24.36 36.8236C25.515 36.8236 26.4757 35.2854 26.4757 33.3849C26.4757 31.4844 25.515 29.9461 24.36 29.9461ZM30.9487 33.3849C30.9467 34.2472 30.7745 35.1006 30.442 35.8963C30.1096 36.6919 29.6234 37.4142 29.0113 38.0216C28.3992 38.629 27.6733 39.1097 26.8752 39.4361C26.077 39.7625 25.2223 39.9282 24.36 39.9237C23.4992 39.9272 22.6462 39.7606 21.85 39.4335C21.0538 39.1064 20.33 38.6253 19.7203 38.0177C19.1105 37.4101 18.6267 36.6881 18.2968 35.8931C17.9668 35.098 17.7971 34.2456 17.7975 33.3849C17.7968 32.5238 17.9662 31.6712 18.296 30.8758C18.6258 30.0805 19.1095 29.3582 19.7193 28.7503C20.3291 28.1425 21.053 27.6611 21.8494 27.3338C22.6458 27.0066 23.499 26.8399 24.36 26.8434C25.2225 26.8389 26.0775 27.0046 26.8758 27.3312C27.6741 27.6578 28.4001 28.1387 29.0122 28.7464C29.6243 29.3541 30.1105 30.0767 30.4428 30.8726C30.7751 31.6686 30.947 32.5223 30.9487 33.3849ZM40.9867 27.1111L36.057 32.0382V27.0927H31.7782V39.6612H36.057V34.5609L41.202 39.6612H46.5885L40.0496 33.1197L45.465 27.707V35.162C45.465 37.64 46.9534 39.9237 50.7045 39.9237C52.4842 39.9237 54.117 38.9157 54.9124 38.0022L56.8365 39.6612H57.75V27.1111H53.4712V35.2381C52.9909 36.0781 52.3189 36.6057 51.282 36.6057C50.2294 36.6057 49.7464 35.9836 49.7464 33.986V27.1111H40.9867Z" fill="white"/>
</svg>
