<svg width="24" height="24" viewBox="0 0 24 24" fill="none" xmlns="http://www.w3.org/2000/svg">
<path d="M9.47577 1.92988C10.6565 0.0915866 13.3434 0.0915849 14.5241 1.92987L16.482 4.97807C16.8882 5.61057 17.5171 6.0675 18.2442 6.25842L21.7482 7.17851C23.8614 7.7334 24.6917 10.2888 23.3083 11.9798L21.0143 14.7838C20.5383 15.3656 20.2981 16.1049 20.3412 16.8554L20.5489 20.4722C20.6742 22.6535 18.5005 24.2328 16.4647 23.4396L13.0891 22.1244C12.3886 21.8514 11.6113 21.8514 10.9108 22.1244L7.53518 23.4396C5.49942 24.2328 3.3257 22.6535 3.45098 20.4722L3.65872 16.8554C3.70183 16.1049 3.4616 15.3656 2.9856 14.7838L0.691612 11.9798C-0.691836 10.2888 0.13845 7.7334 2.25164 7.17851L5.75565 6.25842C6.48273 6.0675 7.11165 5.61057 7.5179 4.97807L9.47577 1.92988Z" fill="#F7FF89"/>
</svg>
