<svg width="648" height="217" viewBox="0 0 648 217" fill="none" xmlns="http://www.w3.org/2000/svg">
<path d="M290.386 45.7566V166.068C290.386 168.318 289.262 169.412 287.043 169.412H274.61C272.361 169.412 271.267 168.287 271.267 166.068V45.7566C271.267 43.5073 272.391 42.413 274.61 42.413H287.043C289.292 42.413 290.386 43.5377 290.386 45.7566Z" fill="white"/>
<path d="M314.857 166.068V156.797C314.857 153.362 315.465 150.931 316.65 149.502L373.736 61.1985V60.4081H321.392C319.021 60.4081 317.836 59.2834 317.836 57.0645V45.8175C317.836 43.5681 319.021 42.4738 321.392 42.4738H391.305C393.555 42.4738 394.649 43.5985 394.649 45.8175V58.8579C394.649 61.7456 393.92 64.3294 392.491 66.5788L337.563 150.718V151.508H393.281C395.531 151.508 396.625 152.572 396.625 154.67V165.734C396.625 168.227 395.5 169.503 393.281 169.503H318.2C315.951 169.503 314.857 168.379 314.857 166.16V166.068Z" fill="white"/>
<path d="M417.781 138.589V133.452C417.781 131.203 418.906 130.109 421.125 130.109H433.77C436.019 130.109 437.113 131.233 437.113 133.452V137.009C437.113 142.541 438.329 146.523 440.761 148.955C443.193 151.387 447.236 152.603 452.92 152.603H466.568C472.222 152.603 476.326 151.326 478.818 148.742C481.311 146.158 482.588 141.994 482.588 136.218V131.659C482.588 127.464 480.976 124.12 477.754 121.689C474.532 119.257 470.55 117.676 465.808 116.947C461.066 116.217 455.868 115.214 450.215 113.877C444.561 112.57 439.332 111.05 434.591 109.317C429.849 107.615 425.867 104.393 422.644 99.6204C419.422 94.8784 417.811 88.8294 417.811 81.4429V73.1445C417.811 63.539 420.547 56.0005 426.019 50.529C431.49 45.0576 439.028 42.3218 448.634 42.3218H469.578C479.335 42.3218 486.934 45.0576 492.406 50.529C497.877 56.0005 500.613 63.539 500.613 73.1445V77.4913C500.613 79.7407 499.488 80.835 497.269 80.835H484.624C482.375 80.835 481.28 79.7103 481.28 77.4913V74.9075C481.28 69.2537 480.065 65.2108 477.633 62.7487C475.201 60.3169 471.158 59.101 465.474 59.101H453.042C447.357 59.101 443.314 60.3777 440.883 62.9615C438.451 65.5452 437.235 69.9224 437.235 76.093V82.2028C437.235 88.1303 441.521 92.1427 450.063 94.2401C453.893 95.152 458.057 95.9727 462.586 96.6111C467.146 97.2798 471.705 98.2525 476.326 99.5596C480.946 100.867 485.141 102.63 488.971 104.788C492.801 106.946 495.871 110.259 498.242 114.667C500.613 119.075 501.799 124.455 501.799 130.777V138.498C501.799 148.104 499.063 155.642 493.591 161.114C488.12 166.585 480.581 169.321 470.976 169.321H448.847C439.241 169.321 431.672 166.585 426.14 161.114C420.608 155.642 417.842 148.104 417.842 138.498L417.781 138.589Z" fill="white"/>
<path d="M548.549 45.7566V166.068C548.549 168.318 547.424 169.412 545.205 169.412H532.773C530.523 169.412 529.429 168.287 529.429 166.068V45.7566C529.429 43.5073 530.554 42.413 532.773 42.413H545.205C547.455 42.413 548.549 43.5377 548.549 45.7566Z" fill="white"/>
<path d="M613.142 169.412H600.71C598.339 169.412 597.153 168.288 597.153 166.069V61.1682C597.153 59.8611 596.485 59.1924 595.178 59.1924H570.282C567.911 59.1924 566.726 58.0677 566.726 55.8487V45.7873C566.726 43.5379 567.911 42.4436 570.282 42.4436H643.57C645.941 42.4436 647.126 43.5683 647.126 45.7873V55.8487C647.126 58.0981 645.941 59.1924 643.57 59.1924H618.675C617.216 59.1924 616.516 59.8611 616.516 61.1682V166.069C616.516 168.318 615.392 169.412 613.173 169.412H613.142Z" fill="white"/>
<path d="M101.438 216.588C150.104 216.588 189.559 177.132 189.559 128.467C189.559 79.8008 150.104 40.3454 101.438 40.3454C52.7724 40.3454 13.3169 79.8008 13.3169 128.467C13.3169 177.132 52.7724 216.588 101.438 216.588Z" fill="#D1E9E2"/>
<path d="M101.438 195.553C138.492 195.553 168.524 165.521 168.524 128.467C168.524 91.413 138.492 61.3806 101.438 61.3806C64.3838 61.3806 34.3515 91.413 34.3515 128.467C34.3515 165.521 64.3838 195.553 101.438 195.553Z" fill="#10B981"/>
<path d="M101.438 21.7121C160.408 21.7121 208.193 69.4964 208.193 128.467" stroke="#14DC96" stroke-width="7.11292" stroke-miterlimit="10"/>
<path d="M4.71387 51.5315C27.3597 23.1102 62.2556 4.90234 101.407 4.90234C169.649 4.90234 224.971 60.2251 224.971 128.467C224.971 156.827 215.396 182.969 199.347 203.851" stroke="#14DC96" stroke-width="9.78787" stroke-miterlimit="10"/>
</svg>
